<?xml version="1.0" encoding="UTF-8" standalone="no"?>
<!-- Created with Inkscape (http://www.inkscape.org/) -->

<svg
   width="512"
   height="512"
   viewBox="0 0 135.46667 135.46667"
   version="1.1"
   id="svg1"
   xmlns="http://www.w3.org/2000/svg"
   xmlns:svg="http://www.w3.org/2000/svg">
  <defs
     id="defs1" />
  <path
     id="path89"
     style="fill:#ffffff;fill-opacity:1;stroke:#ffffff;stroke-width:0;stroke-dasharray:none;stroke-opacity:0"
     d="m 13.22064,8.350139 1.6459,17.888314 c 0,0 0.222759,1.446763 1.11311,2.615345 0.89035,1.16858 19.08669,22.982059 19.08669,22.982059 l 3.33881,33.999992 c 0,0 -0.01463,0.03358 -0.01705,0.04496 l 0.01757,0.177767 c 0,0 -0.08381,0.49903 -0.3297,0.03669 -0.24593,-0.462341 -4.35787,-33.730758 -4.35787,-33.730758 0,0 -0.14755,-0.580451 -0.82631,-1.337903 C 32.21344,50.2696 17.10129,31.818547 17.08345,31.796771 l 0.50178,11.885063 10.70271,10.545093 -1.39061,-1.147217 1.39061,1.369942 -8.76329,-7.230566 0.42168,8.424292 11.48974,10.387996 -2.24638,-1.808158 2.24638,2.030884 -9.46299,-7.617106 0.64854,7.630542 11.92278,12.316044 -1.50171,-1.328601 1.50171,1.551326 -10.54147,-9.327079 1.17667,7.097758 c 0,0 0.5115,1.377164 2.20348,3.029789 1.69197,1.652624 5.50871,5.429643 5.50871,5.429643 0,0 0.62927,0.944332 1.53428,3.856095 0.90502,2.911766 3.0887,8.601542 3.0887,8.601542 0,0 0.55661,1.391145 0.75137,4.034377 0.19477,2.64321 0.52865,5.89835 0.52865,5.89835 0,0 0.50078,3.11622 1.39113,5.09168 0.89035,1.97546 2.69898,5.20319 5.48132,7.62382 2.78234,2.42063 5.64798,4.03423 7.846033,5.03587 2.083225,0.94932 5.038282,1.84178 5.359879,1.93838 -0.554024,-0.72297 -4.32076,-5.86833 -5.637899,-14.59755 -1.191603,-7.8973 -1.168183,-8.99503 -1.129643,-9.16017 8e-5,-0.0195 -0.0056,-0.0842 -0.0052,-0.10025 -0.06726,-0.0684 -6.83051,-6.95167 -8.38088,-10.744565 -1.55811,-3.811801 -1.9475,-5.147411 -2.05879,-7.929748 -0.1113,-2.782337 -0.25063,-37.784257 -0.25063,-37.784257 0,0 9.7e-4,-0.01107 10e-4,-0.01137 -1e-5,-0.0024 -10e-4,-0.211356 -10e-4,-0.211356 0,0 0.0098,-0.113572 0.01757,-0.202572 0.0021,-0.638264 -0.15088,-1.953773 -1.32499,-3.525883 C 38.46263,40.65276 13.26651,8.408834 13.22064,8.350139 Z m 109.02539,0 c -0.0459,0.058695 -25.241995,32.302621 -26.882082,34.49867 -1.174109,1.57211 -1.327132,2.887619 -1.324984,3.525883 0.0078,0.089 0.01757,0.202572 0.01757,0.202572 0,0 -0.001,0.208916 -0.001,0.211356 5.5e-5,2.98e-4 0.001,0.01137 0.001,0.01137 0,0 -0.13933,35.00192 -0.25063,37.784257 -0.11129,2.782337 -0.500679,4.117947 -2.058789,7.929748 -1.550373,3.792895 -8.313626,10.676155 -8.380884,10.744565 4.38e-4,0.016 -0.0052,0.0808 -0.0052,0.10025 0.03853,0.16514 0.06195,1.26287 -1.129647,9.16017 -1.317138,8.72922 -5.083874,13.87458 -5.637899,14.59755 0.321597,-0.0966 3.276654,-0.98906 5.35988,-1.93838 2.19805,-1.00164 5.063693,-2.61524 7.846033,-5.03587 2.78234,-2.42063 4.590969,-5.64836 5.481319,-7.62382 0.89035,-1.97546 1.39113,-5.09168 1.39113,-5.09168 0,0 0.33388,-3.25514 0.52865,-5.89835 0.19476,-2.643232 0.751375,-4.034377 0.751375,-4.034377 0,0 2.183688,-5.689776 3.088708,-8.601542 0.90501,-2.911763 1.53427,-3.856095 1.53427,-3.856095 0,0 3.81674,-3.777019 5.50871,-5.429643 1.69198,-1.652625 2.20348,-3.029789 2.20348,-3.029789 l 1.17667,-7.097758 -10.54147,9.327079 1.50171,-1.551326 -1.50171,1.328601 11.92278,-12.316044 0.64854,-7.630542 -9.46299,7.617106 2.24638,-2.030884 -2.24638,1.808158 11.48974,-10.387996 0.42168,-8.424292 -8.76329,7.230566 1.39062,-1.369942 -1.39062,1.147217 10.70271,-10.545093 0.50178,-11.885063 c -0.0178,0.02178 -15.12999,18.472829 -15.80834,19.229834 -0.67876,0.757452 -0.82631,1.337903 -0.82631,1.337903 0,0 -4.111945,33.268417 -4.357875,33.730758 -0.24589,0.46234 -0.329696,-0.03669 -0.329696,-0.03669 l 0.01757,-0.177767 c -0.0024,-0.01138 -0.01705,-0.04496 -0.01705,-0.04496 L 100.4003,51.835857 c 0,0 18.19635,-21.813479 19.0867,-22.982059 0.89035,-1.168582 1.11311,-2.615345 1.11311,-2.615345 z M 67.733077,23.755917 c -0.212087,0.03645 -0.751172,0.171478 -1.443323,1.056784 -0.84598,1.082074 -2.694914,3.265605 -4.622974,4.81986 -1.92807,1.554253 -4.249619,1.967505 -4.387329,2.144572 -0.135773,0.174565 -2.717759,0.996956 -6.861601,2.622062 -0.18089,0.07585 -1.17196,0.519196 -2.30115,1.041797 -3.435201,1.737383 -6.472601,4.071691 -7.206281,4.658631 -0.88534,0.708269 -0.59014,1.298112 -0.59014,1.298112 0,0 0.57061,0.806806 2.16421,2.380733 1.5936,1.573927 1.27847,2.439644 1.27847,2.439644 0,0 -0.01963,27.661578 -0.01963,28.64528 0,0.983704 0.59054,0.846384 2.02675,0.885734 0.87117,0.02387 1.95558,0.13523 3.276801,0.312643 0.17658,0.02706 0.28773,0.03867 0.49713,0.07545 0.76174,0.108567 1.440469,0.196182 2.49958,0.378789 1.908648,0.329077 3.806018,1.461188 5.349549,2.544547 0.592006,0.369641 1.157656,0.782038 1.696021,1.240234 0.294066,0.230055 0.623702,0.488334 0.826306,0.641822 1.29849,0.983704 2.006814,2.16461 2.439644,2.774507 0.43284,0.609896 1.33761,2.773995 2.04587,3.324862 0.705887,0.549023 1.959181,1.15528 3.253032,1.256771 0.02622,-5.28e-4 0.05299,0.0023 0.07906,0.001 0.02625,0.0013 0.05319,-0.0016 0.07958,-0.001 1.293851,-0.101491 2.547145,-0.707748 3.253032,-1.256771 0.70826,-0.550867 1.61303,-2.714966 2.04587,-3.324862 0.43283,-0.609897 1.141154,-1.790803 2.439644,-2.774507 0.202604,-0.153488 0.53224,-0.411767 0.826306,-0.641822 0.538365,-0.458196 1.104015,-0.870593 1.696021,-1.240234 1.54353,-1.083359 3.440902,-2.21547 5.349544,-2.544547 1.059119,-0.182607 1.737844,-0.270222 2.499589,-0.378789 0.209399,-0.03677 0.320543,-0.04839 0.497127,-0.07545 1.321222,-0.177413 2.405627,-0.288774 3.276803,-0.312643 1.43621,-0.03935 2.02675,0.09797 2.02675,-0.885734 0,-0.983702 -0.01964,-28.64528 -0.01964,-28.64528 0,0 -0.315125,-0.865717 1.278475,-2.439644 1.5936,-1.573927 2.164209,-2.380733 2.164209,-2.380733 0,0 0.295196,-0.589843 -0.590144,-1.298112 -0.733501,-0.586802 -3.769498,-2.919822 -7.203695,-4.65708 -1.131158,-0.523597 -2.122631,-0.967407 -2.303735,-1.043348 -4.143835,-1.625106 -6.725825,-2.447497 -6.861597,-2.622062 -0.13771,-0.177067 -2.459259,-0.590319 -4.387329,-2.144572 -1.92806,-1.554255 -3.776994,-3.737786 -4.622974,-4.81986 -0.692556,-0.885823 -1.232137,-1.020478 -1.443839,-1.056784 z M 52.878686,48.441232 c 0.182424,0.0046 1.151703,0.06327 2.393136,0.177251 0.34781,0.02817 0.683542,0.06528 1.017509,0.11007 0.394169,0.0453 0.661969,0.05624 1.106909,0.11989 2.47975,0.354748 4.991119,1.495244 6.027539,2.016931 1.03642,0.52169 3.070668,1.982706 3.922757,2.688725 0.150156,0.124413 0.27183,0.191318 0.38654,0.232544 0.114839,-0.04117 0.236694,-0.10796 0.387056,-0.232544 0.85209,-0.706019 2.886338,-2.167035 3.922758,-2.688725 1.036421,-0.521687 3.547789,-1.662183 6.02754,-2.016931 0.44494,-0.06365 0.712739,-0.07459 1.106909,-0.11989 0.333966,-0.04479 0.669698,-0.0819 1.017509,-0.11007 1.241433,-0.113983 2.210711,-0.172661 2.393136,-0.177251 0.278226,-0.007 2.932115,0.09666 3.554305,0.148312 0.6222,0.05164 1.003039,0.162264 1.003039,0.162264 0,0 -0.466109,0.02058 -0.836124,0.03669 -0.207881,0.02133 -0.372855,0.03178 -1.725993,0.212907 -1.76678,0.236498 -4.688058,0.709669 -8.012948,1.989543 -3.32489,1.279874 -5.815489,4.169324 -7.281209,6.190836 -1.46573,2.021512 -1.397331,2.139921 -1.397331,2.139921 0,0 -0.15071,-0.297004 -0.158646,-0.313676 -0.0079,0.01664 -0.15813,0.313676 -0.15813,0.313676 0,0 0.0684,-0.118409 -1.397331,-2.139921 -1.46572,-2.021512 -3.956319,-4.910962 -7.281209,-6.190836 -3.32489,-1.279874 -6.246167,-1.753045 -8.012947,-1.989543 -1.35314,-0.18113 -1.51811,-0.191575 -1.72599,-0.212907 -0.37002,-0.01611 -0.83613,-0.03669 -0.83613,-0.03669 0,0 0.38084,-0.110624 1.00304,-0.162264 0.62219,-0.05165 3.27608,-0.155312 3.554306,-0.148312 z M 51.59039,61.115911 c 0.20053,0.0055 1.275728,0.07763 2.650487,0.218075 0.331373,0.03069 0.651257,0.06971 0.971,0.115755 0.455491,0.05672 0.772931,0.07205 1.292428,0.153995 2.69701,0.425421 5.427945,1.793358 6.555155,2.418974 1.12723,0.62562 3.340183,2.377421 4.266923,3.224093 0.157321,0.143728 0.2857,0.222885 0.406694,0.273885 0.12112,-0.05095 0.249687,-0.129973 0.40721,-0.273885 0.92674,-0.846672 3.139693,-2.598473 4.266923,-3.224093 1.12721,-0.625616 3.858145,-1.993553 6.555155,-2.418974 0.519497,-0.08194 0.836937,-0.09728 1.292428,-0.153995 0.319743,-0.04605 0.639627,-0.08506 0.971,-0.115755 1.374759,-0.140449 2.449956,-0.212575 2.650484,-0.218075 0.30261,-0.0084 3.188697,0.11531 3.865397,0.17725 0.6767,0.06193 1.091407,0.19482 1.091407,0.19482 0,0 -0.500035,0.02533 -0.871782,0.04237 -0.222436,0.02506 -0.408302,0.03832 -1.888773,0.256832 -1.92157,0.283613 -5.099051,0.851054 -8.715231,2.385901 -3.61618,1.534848 -6.324249,5.000119 -7.918379,7.424353 -1.59409,2.424233 -1.519804,2.566251 -1.519804,2.566251 0,0 -0.175295,-0.380842 -0.186035,-0.40566 -0.01073,0.02478 -0.185519,0.40566 -0.185519,0.40566 0,0 0.07429,-0.142018 -1.519804,-2.566251 -1.59413,-2.424234 -4.302199,-5.889505 -7.918379,-7.424353 -3.61618,-1.534847 -6.793665,-2.102288 -8.715235,-2.385901 -1.48047,-0.218509 -1.66633,-0.231774 -1.88877,-0.256832 -0.37175,-0.01704 -0.87178,-0.04237 -0.87178,-0.04237 0,0 0.41471,-0.13289 1.09141,-0.19482 0.6767,-0.06194 3.56278,-0.18565 3.86539,-0.17725 z" />
</svg>
